<?xml version="1.0" encoding="UTF-8"?>
<svg id="ESP" xmlns="http://www.w3.org/2000/svg" viewBox="0 0 127 34">
  <defs>
    <style>
      .cls-1 {
        fill: #ef8e23;
      }

      .cls-2 {
        fill: #692f8b;
      }

      .cls-3 {
        fill: #f18a00;
      }
    </style>
  </defs>
  <path class="cls-3" d="M123.75,1.29c1.72,0,3.11,1.39,3.11,3.11s-1.4,3.12-3.11,3.12-3.12-1.39-3.12-3.12,1.4-3.11,3.12-3.11ZM123.75,7.1c1.48,0,2.69-1.21,2.69-2.7s-1.2-2.7-2.69-2.7-2.69,1.21-2.69,2.7,1.2,2.7,2.69,2.7ZM123.78,4.6h-.78v1.65h-.42v-3.71h1.42c.84,0,1.21.37,1.21,1.04s-.43.94-.93,1.03l1.1,1.65h-.51l-1.09-1.65ZM123,4.23h.91c.49,0,.88-.15.88-.67s-.43-.65-.88-.65h-.91v1.32Z"/>
  <g>
    <g>
      <path class="cls-2" d="M3.28,19.64C1.18,17.54.13,15.01.13,12.05s1.05-5.49,3.15-7.59c2.1-2.1,4.63-3.15,7.59-3.15s5.49,1.05,7.59,3.15c2.1,2.1,3.15,4.63,3.15,7.59s-1.05,5.49-3.15,7.59c-2.1,2.1-4.63,3.15-7.59,3.15s-5.49-1.05-7.59-3.15ZM5.55,6.72c-1.47,1.47-2.21,3.25-2.21,5.33s.74,3.85,2.21,5.33c1.47,1.47,3.25,2.21,5.33,2.21s3.85-.73,5.33-2.21c1.47-1.47,2.21-3.25,2.21-5.33s-.74-3.85-2.21-5.33c-1.47-1.47-3.25-2.21-5.33-2.21s-3.85.74-5.33,2.21Z"/>
      <path class="cls-2" d="M45.87,1.53v21.05h-3.19v-13.37l-5.86,13.37h-3.6l-5.75-13.28v13.28h-3.19V1.53h3.34l7.42,17.18L42.53,1.53h3.34Z"/>
      <path class="cls-2" d="M64.76,1.53v21.05h-3.34l-9-15.05v15.05h-3.19V1.53h3.34l8.99,15.05V1.53h3.21Z"/>
      <path class="cls-2" d="M71.31,22.58h-3.19V1.56h3.19v21.02Z"/>
      <path class="cls-1" d="M77.99,1.53v17.86h7.55v3.19h-10.74V1.53h3.19Z"/>
      <path class="cls-1" d="M91.32,22.58h-3.19V1.56h3.19v21.02Z"/>
      <path class="cls-1" d="M105.55,1.53v3.19h-7.55v5.71h5.83v3.19h-5.83v8.96h-3.19V1.53h10.74Z"/>
      <path class="cls-1" d="M118.84,1.53v3.19h-7.55v5.71h5.83v3.19h-5.83v5.77h7.55v3.19h-10.74V1.53h10.74Z"/>
    </g>
    <g>
      <path class="cls-2" d="M7.07,30.35h1.62v1.26c-.31.25-.84.51-1.45.51-1.19,0-1.98-.84-1.98-2.11,0-1.16.84-2.07,1.91-2.07.75,0,1.16.27,1.5.56l.07.06.36-.41-.07-.06c-.57-.47-1.1-.66-1.83-.66-1.56,0-2.49,1.32-2.49,2.61,0,1.52,1.04,2.59,2.53,2.59.71,0,1.43-.27,1.97-.75l.03-.03v-2h-2.15v.52Z"/>
      <polygon class="cls-2" points="10.74 30.25 13.52 30.25 13.52 29.73 10.74 29.73 10.74 28.01 13.83 28.01 13.83 27.5 10.2 27.5 10.2 32.53 13.87 32.53 13.87 32.01 10.74 32.01 10.74 30.25"/>
      <polygon class="cls-2" points="18.38 31.54 15.17 27.5 14.69 27.5 14.69 32.53 15.23 32.53 15.23 28.4 18.5 32.53 18.91 32.53 18.91 27.5 18.38 27.5 18.38 31.54"/>
      <polygon class="cls-2" points="19.68 28.01 21.37 28.01 21.37 32.53 21.91 32.53 21.91 28.01 23.6 28.01 23.6 27.5 19.68 27.5 19.68 28.01"/>
      <polygon class="cls-2" points="24.91 30.25 27.69 30.25 27.69 29.73 24.91 29.73 24.91 28.01 28 28.01 28 27.5 24.37 27.5 24.37 32.53 28.04 32.53 28.04 32.01 24.91 32.01 24.91 30.25"/>
      <path class="cls-2" d="M35.65,30.05l.04-.05-.04-.04c-.02-1.46-1.1-2.55-2.52-2.55-1.25,0-2.54.97-2.54,2.61,0,1.47,1.09,2.59,2.52,2.59.59,0,1.13-.18,1.56-.52l.69.63.38-.42-.7-.58c.38-.46.59-1.05.6-1.67ZM34.65,31.36l-.93-.84-.38.42.93.79c-.33.24-.72.37-1.14.37-1.11,0-1.98-.92-1.98-2.1s.84-2.07,1.96-2.07,1.98.92,1.98,2.1c0,.49-.16.96-.44,1.33Z"/>
      <path class="cls-2" d="M40.08,30.42c0,1.08-.54,1.67-1.52,1.67s-1.55-.62-1.55-1.71v-2.89h-.55v2.93c0,1.35.8,2.18,2.08,2.18s2.08-.85,2.08-2.23v-2.88h-.55v2.93Z"/>
      <polygon class="cls-2" points="42.21 30.25 44.99 30.25 44.99 29.73 42.21 29.73 42.21 28.01 45.3 28.01 45.3 27.5 41.66 27.5 41.66 32.53 45.33 32.53 45.33 32.01 42.21 32.01 42.21 30.25"/>
      <path class="cls-2" d="M52.01,31.37c-.52.52-.99.73-1.6.73-1.1,0-1.96-.92-1.96-2.1s.84-2.07,1.95-2.07c.6,0,1.07.21,1.57.69l.07.06.39-.4-.07-.06c-.45-.42-1-.8-1.95-.8-1.41,0-2.52,1.14-2.52,2.61s1.08,2.59,2.5,2.59c.97,0,1.55-.44,1.99-.87l.07-.07-.38-.37-.07.06Z"/>
      <path class="cls-2" d="M56.61,30.42c0,1.08-.54,1.67-1.52,1.67s-1.55-.62-1.55-1.71v-2.89h-.55v2.93c0,1.35.8,2.18,2.08,2.18s2.08-.85,2.08-2.23v-2.88h-.55v2.93Z"/>
      <rect class="cls-2" x="58.24" y="27.5" width=".55" height="5.03"/>
      <path class="cls-2" d="M61.65,27.5h-1.71v5.03h1.71c1.55,0,2.67-1.06,2.67-2.53s-1.12-2.5-2.67-2.5ZM63.76,30.03c0,1.17-.87,1.98-2.11,1.98h-1.16v-4h1.16c1.22,0,2.11.84,2.11,2h0Z"/>
      <path class="cls-2" d="M67.56,27.46h-.46l-2.34,5.07h.58l.62-1.36h2.74l.62,1.36h.6l-2.32-5.01-.02-.05ZM66.18,30.66l1.14-2.49,1.13,2.49h-2.27Z"/>
      <path class="cls-2" d="M74.82,27.46h-.46l-2.34,5.07h.58l.62-1.36h2.74l.59,1.3.03.05h.6l-2.32-5.01-.02-.05ZM73.45,30.66l1.14-2.49,1.13,2.49h-2.27Z"/>
      <polygon class="cls-2" points="80.29 27.5 79.75 27.5 79.75 32.53 83.14 32.53 83.14 32.01 80.29 32.01 80.29 27.5"/>
      <path class="cls-2" d="M86.23,27.46h-.47l-2.34,5.07h.58l.62-1.36h2.74l.59,1.3.03.05h.6l-2.32-5.01-.02-.05ZM84.86,30.66l1.14-2.49,1.13,2.49h-2.27Z"/>
      <path class="cls-2" d="M93.32,30.35h1.62v1.26c-.31.25-.84.51-1.45.51-1.19,0-1.98-.84-1.98-2.11,0-1.16.84-2.07,1.91-2.07.75,0,1.18.28,1.5.56l.07.06.36-.41-.07-.06c-.57-.47-1.1-.66-1.83-.66-1.56,0-2.49,1.32-2.49,2.61,0,1.52,1.04,2.59,2.53,2.59.71,0,1.43-.27,1.97-.75l.03-.03v-2h-2.15v.52Z"/>
      <polygon class="cls-2" points="96.99 30.25 99.77 30.25 99.77 29.73 96.99 29.73 96.99 28.01 100.08 28.01 100.08 27.5 96.44 27.5 96.44 32.53 100.11 32.53 100.11 32.01 96.99 32.01 96.99 30.25"/>
      <polygon class="cls-2" points="104.62 31.54 101.44 27.53 101.42 27.5 100.94 27.5 100.94 32.53 101.47 32.53 101.47 28.4 104.72 32.49 104.75 32.53 105.16 32.53 105.16 27.5 104.62 27.5 104.62 31.54"/>
      <polygon class="cls-2" points="105.92 28.01 107.61 28.01 107.61 32.53 108.16 32.53 108.16 28.01 109.85 28.01 109.85 27.5 105.92 27.5 105.92 28.01"/>
      <polygon class="cls-2" points="111.16 32.01 111.16 30.25 113.94 30.25 113.94 29.73 111.16 29.73 111.16 28.01 114.25 28.01 114.25 27.5 110.61 27.5 110.61 32.53 114.28 32.53 114.28 32.01 111.16 32.01"/>
    </g>
  </g>
</svg>